<svg width="35" height="35" viewBox="0 0 35 35" fill="none" xmlns="http://www.w3.org/2000/svg">
<g clip-path="url(#clip0_528_701)">
<path d="M11.6667 10.2083C11.6667 11.7554 12.2813 13.2392 13.3753 14.3331C14.4693 15.4271 15.953 16.0417 17.5001 16.0417C19.0472 16.0417 20.5309 15.4271 21.6249 14.3331C22.7188 13.2392 23.3334 11.7554 23.3334 10.2083C23.3334 8.66124 22.7188 7.17751 21.6249 6.08354C20.5309 4.98958 19.0472 4.375 17.5001 4.375C15.953 4.375 14.4693 4.98958 13.3753 6.08354C12.2813 7.17751 11.6667 8.66124 11.6667 10.2083Z" stroke="#C4B7A6" stroke-width="2" stroke-linecap="round" stroke-linejoin="round"/>
<path d="M8.75 30.625V27.7083C8.75 26.1612 9.36458 24.6775 10.4585 23.5835C11.5525 22.4896 13.0362 21.875 14.5833 21.875H20.4167C21.9638 21.875 23.4475 22.4896 24.5415 23.5835C25.6354 24.6775 26.25 26.1612 26.25 27.7083V30.625" stroke="#C4B7A6" stroke-width="2" stroke-linecap="round" stroke-linejoin="round"/>
</g>
<defs>
<clipPath id="clip0_528_701">
<rect width="35" height="35" fill="white"/>
</clipPath>
</defs>
</svg>
