<svg width="35" height="35" viewBox="0 0 35 35" fill="none"  xmlns="http://www.w3.org/2000/svg">
<path d="M29.7227 15.8594L27.3438 13.4821V7.65625C27.3438 6.75391 26.6055 6.01562 25.7031 6.01562H24.0625C23.1602 6.01562 22.4219 6.75391 22.4219 7.65625V8.56352L19.1406 5.28555C18.6927 4.86227 18.2826 4.375 17.5 4.375C16.7174 4.375 16.3073 4.86227 15.8594 5.28555L5.27734 15.8594C4.76547 16.3926 4.375 16.7814 4.375 17.5C4.375 18.4237 5.08375 19.1406 6.01562 19.1406H7.65625V28.9844C7.65625 29.8867 8.39453 30.625 9.29688 30.625H12.5781C13.4842 30.625 14.2188 29.8905 14.2188 28.9844V22.4219C14.2188 21.5195 14.957 20.7812 15.8594 20.7812H19.1406C20.043 20.7812 20.7812 21.5195 20.7812 22.4219V28.9844C20.7812 29.8905 20.6955 30.625 21.6016 30.625H25.7031C26.6055 30.625 27.3438 29.8867 27.3438 28.9844V19.1406H28.9844C29.9163 19.1406 30.625 18.4237 30.625 17.5C30.625 16.7814 30.2345 16.3926 29.7227 15.8594Z" stroke="#C4B7A6" stroke-width="2" stroke-linejoin="round"/>
</svg>
