<svg width="29" height="30" viewBox="0 0 29 30" fill="none" xmlns="http://www.w3.org/2000/svg">
<g clip-path="url(#clip0_927_6575)">
<path d="M23.5625 15.7151L14.5 25.0001L5.43746 15.7151C4.8397 15.1134 4.36886 14.3901 4.05458 13.5909C3.7403 12.7917 3.58939 11.9338 3.61135 11.0713C3.63331 10.2087 3.82767 9.36027 4.18219 8.57927C4.53671 7.79827 5.0437 7.10167 5.67125 6.53332C6.2988 5.96498 7.03331 5.53721 7.82852 5.27695C8.62373 5.01669 9.46242 4.92958 10.2918 5.0211C11.1211 5.11262 11.9232 5.3808 12.6474 5.80873C13.3717 6.23667 14.0024 6.8151 14.5 7.5076C14.9996 6.82013 15.6311 6.24675 16.3549 5.82335C17.0786 5.39996 17.8791 5.13566 18.7061 5.047C19.5331 4.95834 20.3689 5.04722 21.1612 5.30809C21.9535 5.56896 22.6852 5.99619 23.3106 6.56305C23.9359 7.12992 24.4414 7.8242 24.7955 8.60246C25.1495 9.38072 25.3444 10.2262 25.3681 11.086C25.3917 11.9458 25.2436 12.8013 24.9329 13.5992C24.6222 14.397 24.1556 15.1199 23.5625 15.7226" stroke="#353229" stroke-width="2" stroke-linecap="round" stroke-linejoin="round"/>
</g>
<defs>
<clipPath id="clip0_927_6575">
<rect width="29" height="30" fill="white"/>
</clipPath>
</defs>
</svg>
