<?xml version="1.0" encoding="UTF-8"?>
<!DOCTYPE svg PUBLIC "-//W3C//DTD SVG 1.1//EN" "http://www.w3.org/Graphics/SVG/1.1/DTD/svg11.dtd">
<svg xmlns="http://www.w3.org/2000/svg" version="1.1" width="500px" height="500px" style="shape-rendering:geometricPrecision; text-rendering:geometricPrecision; image-rendering:optimizeQuality; fill-rule:evenodd; clip-rule:evenodd" xmlns:xlink="http://www.w3.org/1999/xlink">
<g><path style="opacity:0.95" fill="#38312d" d="M 227.5,25.5 C 316.478,20.0659 383.978,55.0659 430,130.5C 456.496,180.453 462.496,232.787 448,287.5C 431.455,342.369 398.288,383.869 348.5,412C 299.839,437.518 248.839,443.518 195.5,430C 124.027,407.861 76.1941,361.361 52,290.5C 31.2908,209.49 50.1241,139.323 108.5,80C 142.421,49.3741 182.088,31.2075 227.5,25.5 Z"/></g>
<g><path style="opacity:1" fill="#f6f2ef" d="M 235.5,26.5 C 305.071,24.3828 362.571,49.3828 408,101.5C 461.017,172.711 468.017,248.377 429,328.5C 383.467,404.857 315.967,440.024 226.5,434C 149.828,422.421 94.9949,381.588 62,311.5C 32.3364,234.808 42.6698,164.141 93,99.5C 130.735,56.2156 178.235,31.8822 235.5,26.5 Z"/></g>
<g><path style="opacity:1" fill="#1e1208" d="M 367.5,192.5 C 368.638,197.091 369.471,201.757 370,206.5C 370.236,208.119 371.069,209.119 372.5,209.5C 372.69,214.37 373.356,219.036 374.5,223.5C 374.428,237.249 373.428,250.916 371.5,264.5C 370.076,266.515 369.41,268.848 369.5,271.5C 368.47,277.265 366.47,282.598 363.5,287.5C 362.5,287.5 361.5,287.5 360.5,287.5C 360.5,279.833 360.5,272.167 360.5,264.5C 368.455,260.236 371.288,253.569 369,244.5C 368.023,243.226 367.189,243.226 366.5,244.5C 358.666,248.168 355.666,254.168 357.5,262.5C 357.665,266.182 357.499,269.848 357,273.5C 355.167,271 353.333,268.5 351.5,266C 350.517,265.409 349.85,265.743 349.5,267C 351.985,270.823 354.485,274.656 357,278.5C 357.498,281.482 357.665,284.482 357.5,287.5C 352.833,287.5 348.167,287.5 343.5,287.5C 343.301,277.473 343.634,267.473 344.5,257.5C 344.799,253.895 345.965,250.561 348,247.5C 351.343,243.327 354.843,239.327 358.5,235.5C 357.635,234.417 356.635,234.251 355.5,235C 349.063,239.768 344.563,245.935 342,253.5C 340.947,245.198 340.447,236.865 340.5,228.5C 345.274,221.953 349.274,214.953 352.5,207.5C 351.325,207.281 350.325,207.614 349.5,208.5C 346.146,213.207 343.313,218.207 341,223.5C 340.501,217.843 340.334,212.176 340.5,206.5C 347.359,202.691 350.693,196.691 350.5,188.5C 350.302,180.103 346.968,173.436 340.5,168.5C 339.998,166.915 338.998,166.415 337.5,167C 326.84,176.776 324.673,188.276 331,201.5C 332.777,203.79 334.944,205.457 337.5,206.5C 337.656,215.175 337.989,223.842 338.5,232.5C 335.838,224.346 331.505,217.18 325.5,211C 324.517,210.409 323.85,210.743 323.5,212C 335.768,226.81 341.268,243.976 340,263.5C 340.5,271.493 340.666,279.493 340.5,287.5C 339.209,287.263 338.209,287.596 337.5,288.5C 337.5,288.833 337.5,289.167 337.5,289.5C 335.517,292.799 334.517,296.466 334.5,300.5C 333.087,303.219 332.42,306.219 332.5,309.5C 331.686,311.631 331.186,313.964 331,316.5C 330.015,317.814 328.848,318.814 327.5,319.5C 326.391,319.557 325.391,319.89 324.5,320.5C 321.612,321.01 319.279,320.344 317.5,318.5C 317.334,310.826 317.5,303.159 318,295.5C 322.736,293.763 325.736,290.429 327,285.5C 327.828,270.328 327.661,255.328 326.5,240.5C 326.649,239.448 326.483,238.448 326,237.5C 323.421,234.479 320.587,231.812 317.5,229.5C 317.5,226.167 317.5,222.833 317.5,219.5C 317.667,203.83 317.5,188.163 317,172.5C 310.273,152.776 296.773,140.276 276.5,135C 270.44,134.229 264.44,133.396 258.5,132.5C 256.412,131.061 254.079,130.394 251.5,130.5C 250.833,118.5 250.167,118.5 249.5,130.5C 239.995,131.325 233.662,136.325 230.5,145.5C 229.509,151.979 229.176,158.646 229.5,165.5C 234.511,165.334 239.511,165.501 244.5,166C 248.167,170.667 251.833,170.667 255.5,166C 260.489,165.501 265.489,165.334 270.5,165.5C 270.5,164.5 270.5,163.5 270.5,162.5C 270.821,157.305 270.487,152.305 269.5,147.5C 268.873,143.58 267.207,140.247 264.5,137.5C 265.274,136.853 266.274,136.52 267.5,136.5C 289.045,138.728 304.045,149.728 312.5,169.5C 312.523,171.927 313.023,174.26 314,176.5C 314.5,193.83 314.667,211.163 314.5,228.5C 311.941,228.198 309.607,228.532 307.5,229.5C 307.167,229.5 306.833,229.5 306.5,229.5C 304.875,226.109 303.875,222.442 303.5,218.5C 303.293,215.759 302.293,213.426 300.5,211.5C 300.155,208.802 298.822,206.802 296.5,205.5C 294.225,201.693 290.892,199.359 286.5,198.5C 286.167,198.5 285.833,198.5 285.5,198.5C 259.672,197.502 233.672,197.169 207.5,197.5C 206.833,197.5 206.167,197.5 205.5,197.5C 199.158,197.334 192.825,197.5 186.5,198C 183.944,199.055 182.277,200.888 181.5,203.5C 180.842,202.602 180.176,201.602 179.5,200.5C 170.246,207.599 166.246,216.933 167.5,228.5C 160.154,229.003 155.154,232.67 152.5,239.5C 151.505,252.323 151.171,265.323 151.5,278.5C 145.5,278.5 139.5,278.5 133.5,278.5C 133.672,277.508 133.338,276.842 132.5,276.5C 130.702,271.641 129.368,266.641 128.5,261.5C 128.58,258.219 127.913,255.219 126.5,252.5C 125.167,240.167 125.167,227.833 126.5,215.5C 128.04,213.162 128.706,210.495 128.5,207.5C 138.208,166.579 161.875,136.746 199.5,118C 258.369,96.0723 308.203,108.906 349,156.5C 356.5,167.833 362.666,179.833 367.5,192.5 Z"/></g>
<g><path style="opacity:1" fill="#e5dedb" d="M 258.5,132.5 C 260.429,134.148 262.429,135.815 264.5,137.5C 267.207,140.247 268.873,143.58 269.5,147.5C 269.664,150.187 269.497,152.854 269,155.5C 268.396,145.774 263.896,138.608 255.5,134C 249.984,132.899 244.817,133.733 240,136.5C 238.855,140.964 236.855,144.964 234,148.5C 232.691,153.066 232.191,157.733 232.5,162.5C 230.55,157.265 229.883,151.598 230.5,145.5C 233.662,136.325 239.995,131.325 249.5,130.5C 250.167,118.5 250.833,118.5 251.5,130.5C 254.079,130.394 256.412,131.061 258.5,132.5 Z"/></g>
<g><path style="opacity:1" fill="#cfbdae" d="M 269.5,147.5 C 270.487,152.305 270.821,157.305 270.5,162.5C 268.784,162.371 267.117,162.038 265.5,161.5C 265.664,158.813 265.497,156.146 265,153.5C 263.445,151.854 261.779,151.521 260,152.5C 260.284,149.591 260.117,146.758 259.5,144C 257.939,143.812 257.272,144.645 257.5,146.5C 253.849,146.746 250.349,146.746 247,146.5C 244.872,149.458 242.206,150.124 239,148.5C 233.932,151.298 232.099,155.632 233.5,161.5C 233.5,162.167 233.167,162.5 232.5,162.5C 232.191,157.733 232.691,153.066 234,148.5C 236.855,144.964 238.855,140.964 240,136.5C 244.817,133.733 249.984,132.899 255.5,134C 263.896,138.608 268.396,145.774 269,155.5C 269.497,152.854 269.664,150.187 269.5,147.5 Z"/></g>
<g><path style="opacity:1" fill="#c9b2a0" d="M 265.5,161.5 C 254.82,158.871 244.153,158.871 233.5,161.5C 232.099,155.632 233.932,151.298 239,148.5C 242.206,150.124 244.872,149.458 247,146.5C 250.349,146.746 253.849,146.746 257.5,146.5C 257.272,144.645 257.939,143.812 259.5,144C 260.117,146.758 260.284,149.591 260,152.5C 261.779,151.521 263.445,151.854 265,153.5C 265.497,156.146 265.664,158.813 265.5,161.5 Z"/></g>
<g><path style="opacity:1" fill="#cbbfb8" d="M 258.5,132.5 C 264.44,133.396 270.44,134.229 276.5,135C 296.773,140.276 310.273,152.776 317,172.5C 317.5,188.163 317.667,203.83 317.5,219.5C 316.833,219.833 316.167,220.167 315.5,220.5C 315.667,205.496 315.5,190.496 315,175.5C 314.434,173.277 313.6,171.277 312.5,169.5C 304.045,149.728 289.045,138.728 267.5,136.5C 266.274,136.52 265.274,136.853 264.5,137.5C 262.429,135.815 260.429,134.148 258.5,132.5 Z"/></g>
<g><path style="opacity:1" fill="#957664" d="M 230.5,145.5 C 229.883,151.598 230.55,157.265 232.5,162.5C 233.167,162.5 233.5,162.167 233.5,161.5C 244.153,158.871 254.82,158.871 265.5,161.5C 267.117,162.038 268.784,162.371 270.5,162.5C 270.5,163.5 270.5,164.5 270.5,165.5C 265.489,165.334 260.489,165.501 255.5,166C 251.833,170.667 248.167,170.667 244.5,166C 239.511,165.501 234.511,165.334 229.5,165.5C 229.176,158.646 229.509,151.979 230.5,145.5 Z"/></g>
<g><path style="opacity:1" fill="#8b6d5c" d="M 340.5,168.5 C 346.968,173.436 350.302,180.103 350.5,188.5C 350.693,196.691 347.359,202.691 340.5,206.5C 340.5,202.833 340.5,199.167 340.5,195.5C 344.135,193.393 346.301,190.393 347,186.5C 344.817,188.907 342.65,191.24 340.5,193.5C 340.5,185.5 340.5,177.5 340.5,169.5C 340.5,169.167 340.5,168.833 340.5,168.5 Z"/></g>
<g><path style="opacity:1" fill="#b49a86" d="M 340.5,168.5 C 340.5,168.833 340.5,169.167 340.5,169.5C 340.167,169.5 339.833,169.5 339.5,169.5C 339.565,169.062 339.399,168.728 339,168.5C 338.667,169.167 338.333,169.833 338,170.5C 337.5,182.495 337.333,194.495 337.5,206.5C 334.944,205.457 332.777,203.79 331,201.5C 324.673,188.276 326.84,176.776 337.5,167C 338.998,166.415 339.998,166.915 340.5,168.5 Z"/></g>
<g><path style="opacity:1" fill="#452618" d="M 340.5,195.5 C 340.5,194.833 340.5,194.167 340.5,193.5C 342.65,191.24 344.817,188.907 347,186.5C 346.301,190.393 344.135,193.393 340.5,195.5 Z"/></g>
<g><path style="opacity:1" fill="#554942" d="M 312.5,169.5 C 313.6,171.277 314.434,173.277 315,175.5C 315.5,190.496 315.667,205.496 315.5,220.5C 315.806,223.385 315.473,226.052 314.5,228.5C 314.667,211.163 314.5,193.83 314,176.5C 313.023,174.26 312.523,171.927 312.5,169.5 Z"/></g>
<g><path style="opacity:1" fill="#d5c9c1" d="M 207.5,197.5 C 233.672,197.169 259.672,197.502 285.5,198.5C 259.831,198.333 234.165,198.5 208.5,199C 234.86,199.389 261.194,199.722 287.5,200C 286.944,199.617 286.611,199.117 286.5,198.5C 290.892,199.359 294.225,201.693 296.5,205.5C 296.44,206.043 296.107,206.376 295.5,206.5C 287.753,202.318 279.42,200.485 270.5,201C 249.503,200.5 228.503,200.333 207.5,200.5C 207.5,199.5 207.5,198.5 207.5,197.5 Z"/></g>
<g><path style="opacity:1" fill="#fdf4ee" d="M 285.5,198.5 C 285.833,198.5 286.167,198.5 286.5,198.5C 286.611,199.117 286.944,199.617 287.5,200C 261.194,199.722 234.86,199.389 208.5,199C 234.165,198.5 259.831,198.333 285.5,198.5 Z"/></g>
<g><path style="opacity:1" fill="#89634e" d="M 205.5,197.5 C 203.491,218.009 210.158,234.843 225.5,248C 226.437,248.692 227.103,248.525 227.5,247.5C 228.338,247.842 228.672,248.508 228.5,249.5C 225.287,249.19 222.287,249.523 219.5,250.5C 219.167,250.5 218.833,250.5 218.5,250.5C 217.833,251.167 217.167,251.833 216.5,252.5C 216.5,251.5 216.5,250.5 216.5,249.5C 217.738,249.19 217.738,248.69 216.5,248C 203.358,241.538 196.358,231.038 195.5,216.5C 194.5,216.5 193.5,216.5 192.5,216.5C 193.909,222.726 195.909,228.726 198.5,234.5C 197.25,234.423 196.417,233.756 196,232.5C 195,234.167 193.667,235.5 192,236.5C 191.683,234.699 191.016,234.366 190,235.5C 189.29,234.027 188.124,233.36 186.5,233.5C 185.37,229.442 184.036,225.442 182.5,221.5C 181.637,215.545 181.303,209.545 181.5,203.5C 182.277,200.888 183.944,199.055 186.5,198C 192.825,197.5 199.158,197.334 205.5,197.5 Z"/></g>
<g><path style="opacity:1" fill="#504841" d="M 367.5,192.5 C 370.146,197.782 371.813,203.448 372.5,209.5C 371.069,209.119 370.236,208.119 370,206.5C 369.471,201.757 368.638,197.091 367.5,192.5 Z"/></g>
<g><path style="opacity:1" fill="#cbb4a1" d="M 207.5,200.5 C 228.503,200.333 249.503,200.5 270.5,201C 279.42,200.485 287.753,202.318 295.5,206.5C 296.107,206.376 296.44,206.043 296.5,205.5C 298.822,206.802 300.155,208.802 300.5,211.5C 300.225,213.842 299.392,213.842 298,211.5C 297.586,211.957 297.086,212.291 296.5,212.5C 287.398,206.516 277.898,205.849 268,210.5C 267.586,210.043 267.086,209.709 266.5,209.5C 263.853,211.608 261.02,212.275 258,211.5C 253.403,214.781 248.403,217.114 243,218.5C 239.244,218.049 235.411,218.049 231.5,218.5C 231.649,219.552 231.483,220.552 231,221.5C 229.89,219.963 228.39,219.297 226.5,219.5C 226.5,217.833 226.5,216.167 226.5,214.5C 224.5,214.833 222.5,215.167 220.5,215.5C 220.5,214.5 220.5,213.5 220.5,212.5C 218.94,212.481 217.44,212.148 216,211.5C 214.902,210.616 214.402,209.616 214.5,208.5C 213.614,209.325 213.281,210.325 213.5,211.5C 212.5,211.5 211.5,211.5 210.5,211.5C 208.94,209.844 207.94,207.844 207.5,205.5C 207.5,203.833 207.5,202.167 207.5,200.5 Z"/></g>
<g><path style="opacity:1" fill="#837973" d="M 128.5,207.5 C 128.706,210.495 128.04,213.162 126.5,215.5C 126.565,212.572 127.232,209.905 128.5,207.5 Z"/></g>
<g><path style="opacity:1" fill="#b0aaa5" d="M 372.5,209.5 C 374.211,213.881 374.877,218.547 374.5,223.5C 373.356,219.036 372.69,214.37 372.5,209.5 Z"/></g>
<g><path style="opacity:1" fill="#dfcdc2" d="M 339.5,169.5 C 339.179,189.243 339.513,208.909 340.5,228.5C 339.833,229.833 339.167,231.167 338.5,232.5C 337.989,223.842 337.656,215.175 337.5,206.5C 337.333,194.495 337.5,182.495 338,170.5C 338.333,169.833 338.667,169.167 339,168.5C 339.399,168.728 339.565,169.062 339.5,169.5 Z"/></g>
<g><path style="opacity:1" fill="#472a1a" d="M 205.5,197.5 C 206.167,197.5 206.833,197.5 207.5,197.5C 207.5,198.5 207.5,199.5 207.5,200.5C 207.5,202.167 207.5,203.833 207.5,205.5C 207.476,222.795 214.143,236.795 227.5,247.5C 227.103,248.525 226.437,248.692 225.5,248C 210.158,234.843 203.491,218.009 205.5,197.5 Z"/></g>
<g><path style="opacity:1" fill="#3b2114" d="M 259.5,219.5 C 259.833,219.5 260.167,219.5 260.5,219.5C 261.167,219.5 261.5,219.833 261.5,220.5C 266.035,226.776 272.035,231.11 279.5,233.5C 279.5,233.833 279.5,234.167 279.5,234.5C 278.761,234.369 278.094,234.536 277.5,235C 279.211,236.133 279.711,237.633 279,239.5C 277.357,241.977 275.524,244.31 273.5,246.5C 268.699,246.864 263.699,247.364 258.5,248C 270.007,248.169 281.341,248.669 292.5,249.5C 280.833,249.5 269.167,249.5 257.5,249.5C 256.058,244.455 255.058,239.289 254.5,234C 254.896,228.713 256.562,223.879 259.5,219.5 Z"/></g>
<g><path style="opacity:1" fill="#6b4530" d="M 285.5,213.5 C 288.574,213.873 291.574,214.539 294.5,215.5C 297.958,218.996 300.792,222.996 303,227.5C 303.498,224.518 303.665,221.518 303.5,218.5C 303.875,222.442 304.875,226.109 306.5,229.5C 306.5,230.167 306.167,230.5 305.5,230.5C 299.497,233.171 297.164,237.838 298.5,244.5C 298.5,244.833 298.5,245.167 298.5,245.5C 292.204,241.893 285.871,238.227 279.5,234.5C 279.5,234.167 279.5,233.833 279.5,233.5C 279.833,226.833 280.167,220.167 280.5,213.5C 282.167,213.5 283.833,213.5 285.5,213.5 Z"/></g>
<g><path style="opacity:1" fill="#8f6d58" d="M 285.5,213.5 C 283.833,213.5 282.167,213.5 280.5,213.5C 280.167,220.167 279.833,226.833 279.5,233.5C 272.035,231.11 266.035,226.776 261.5,220.5C 268.102,213.185 276.102,210.851 285.5,213.5 Z"/></g>
<g><path style="opacity:1" fill="#9c8d87" d="M 317.5,219.5 C 317.5,222.833 317.5,226.167 317.5,229.5C 314.167,229.5 310.833,229.5 307.5,229.5C 309.607,228.532 311.941,228.198 314.5,228.5C 315.473,226.052 315.806,223.385 315.5,220.5C 316.167,220.167 316.833,219.833 317.5,219.5 Z"/></g>
<g><path style="opacity:1" fill="#cfbfb8" d="M 339.5,169.5 C 339.833,169.5 340.167,169.5 340.5,169.5C 340.5,177.5 340.5,185.5 340.5,193.5C 340.5,194.167 340.5,194.833 340.5,195.5C 340.5,199.167 340.5,202.833 340.5,206.5C 340.334,212.176 340.501,217.843 341,223.5C 343.313,218.207 346.146,213.207 349.5,208.5C 350.325,207.614 351.325,207.281 352.5,207.5C 349.274,214.953 345.274,221.953 340.5,228.5C 339.513,208.909 339.179,189.243 339.5,169.5 Z"/></g>
<g><path style="opacity:1" fill="#bfa38e" d="M 300.5,211.5 C 302.293,213.426 303.293,215.759 303.5,218.5C 303.665,221.518 303.498,224.518 303,227.5C 300.792,222.996 297.958,218.996 294.5,215.5C 284.37,207.892 274.036,207.726 263.5,215C 261.859,216.129 260.859,217.629 260.5,219.5C 260.167,219.5 259.833,219.5 259.5,219.5C 255.548,222.716 252.548,226.716 250.5,231.5C 245.272,235.281 239.605,238.281 233.5,240.5C 230.61,239.315 227.776,239.315 225,240.5C 224.517,239.552 224.351,238.552 224.5,237.5C 222.876,237.64 221.71,236.973 221,235.5C 220.667,235.833 220.333,236.167 220,236.5C 214.417,229.095 211.251,220.761 210.5,211.5C 211.5,211.5 212.5,211.5 213.5,211.5C 213.281,210.325 213.614,209.325 214.5,208.5C 214.402,209.616 214.902,210.616 216,211.5C 217.44,212.148 218.94,212.481 220.5,212.5C 220.5,213.5 220.5,214.5 220.5,215.5C 222.5,215.167 224.5,214.833 226.5,214.5C 226.5,216.167 226.5,217.833 226.5,219.5C 228.39,219.297 229.89,219.963 231,221.5C 231.483,220.552 231.649,219.552 231.5,218.5C 235.411,218.049 239.244,218.049 243,218.5C 248.403,217.114 253.403,214.781 258,211.5C 261.02,212.275 263.853,211.608 266.5,209.5C 267.086,209.709 267.586,210.043 268,210.5C 277.898,205.849 287.398,206.516 296.5,212.5C 297.086,212.291 297.586,211.957 298,211.5C 299.392,213.842 300.225,213.842 300.5,211.5 Z"/></g>
<g><path style="opacity:1" fill="#f0e1d5" d="M 294.5,215.5 C 291.574,214.539 288.574,213.873 285.5,213.5C 276.102,210.851 268.102,213.185 261.5,220.5C 261.5,219.833 261.167,219.5 260.5,219.5C 260.859,217.629 261.859,216.129 263.5,215C 274.036,207.726 284.37,207.892 294.5,215.5 Z"/></g>
<g><path style="opacity:1" fill="#613c29" d="M 181.5,203.5 C 181.303,209.545 181.637,215.545 182.5,221.5C 181.387,222.946 181.22,224.613 182,226.5C 184.5,232.167 187,237.833 189.5,243.5C 188.167,243.833 186.833,244.167 185.5,244.5C 184.52,243.019 183.353,241.685 182,240.5C 181.768,241.737 181.268,242.737 180.5,243.5C 180.932,240.123 180.265,237.123 178.5,234.5C 177.833,233.167 176.833,232.167 175.5,231.5C 172.993,230.108 170.327,229.108 167.5,228.5C 166.246,216.933 170.246,207.599 179.5,200.5C 180.176,201.602 180.842,202.602 181.5,203.5 Z"/></g>
<g><path style="opacity:1" fill="#dccec4" d="M 306.5,229.5 C 306.833,229.5 307.167,229.5 307.5,229.5C 310.833,229.5 314.167,229.5 317.5,229.5C 320.587,231.812 323.421,234.479 326,237.5C 326.483,238.448 326.649,239.448 326.5,240.5C 326.5,250.833 326.5,261.167 326.5,271.5C 324.834,260.876 323.168,250.21 321.5,239.5C 320.5,239.5 319.5,239.5 318.5,239.5C 318.033,237.289 317.033,235.289 315.5,233.5C 311.95,235.316 308.616,235.316 305.5,233.5C 304.209,232.473 304.209,231.473 305.5,230.5C 306.167,230.5 306.5,230.167 306.5,229.5 Z"/></g>
<g><path style="opacity:1" fill="#dfd5cf" d="M 167.5,228.5 C 170.327,229.108 172.993,230.108 175.5,231.5C 175.53,232.497 175.03,233.164 174,233.5C 172.715,233.05 171.548,232.383 170.5,231.5C 167.483,234.554 163.817,235.887 159.5,235.5C 159.707,238.745 158.207,240.745 155,241.5C 154.5,251.161 154.334,260.828 154.5,270.5C 154.664,273.187 154.497,275.854 154,278.5C 153.617,279.056 153.117,279.389 152.5,279.5C 152.5,266.167 152.5,252.833 152.5,239.5C 155.154,232.67 160.154,229.003 167.5,228.5 Z"/></g>
<g><path style="opacity:1" fill="#d0bfb0" d="M 175.5,231.5 C 176.833,232.167 177.833,233.167 178.5,234.5C 178.66,236.199 178.494,237.866 178,239.5C 175.136,238.788 172.136,238.455 169,238.5C 165.683,241.806 162.849,245.472 160.5,249.5C 159.833,248.833 159.167,248.167 158.5,247.5C 156.028,254.96 155.028,262.627 155.5,270.5C 155.167,270.5 154.833,270.5 154.5,270.5C 154.334,260.828 154.5,251.161 155,241.5C 158.207,240.745 159.707,238.745 159.5,235.5C 163.817,235.887 167.483,234.554 170.5,231.5C 171.548,232.383 172.715,233.05 174,233.5C 175.03,233.164 175.53,232.497 175.5,231.5 Z"/></g>
<g><path style="opacity:1" fill="#442113" d="M 216.5,249.5 C 215.833,249.5 215.167,249.5 214.5,249.5C 207.897,245.863 202.564,240.863 198.5,234.5C 195.909,228.726 193.909,222.726 192.5,216.5C 193.5,216.5 194.5,216.5 195.5,216.5C 196.358,231.038 203.358,241.538 216.5,248C 217.738,248.69 217.738,249.19 216.5,249.5 Z"/></g>
<g><path style="opacity:1" fill="#a78874" d="M 207.5,205.5 C 207.94,207.844 208.94,209.844 210.5,211.5C 211.251,220.761 214.417,229.095 220,236.5C 220.333,236.167 220.667,235.833 221,235.5C 221.71,236.973 222.876,237.64 224.5,237.5C 224.351,238.552 224.517,239.552 225,240.5C 227.776,239.315 230.61,239.315 233.5,240.5C 239.605,238.281 245.272,235.281 250.5,231.5C 252.548,226.716 255.548,222.716 259.5,219.5C 256.562,223.879 254.896,228.713 254.5,234C 255.058,239.289 256.058,244.455 257.5,249.5C 247.833,249.5 238.167,249.5 228.5,249.5C 228.672,248.508 228.338,247.842 227.5,247.5C 214.143,236.795 207.476,222.795 207.5,205.5 Z"/></g>
<g><path style="opacity:1" fill="#28160c" d="M 279.5,234.5 C 285.871,238.227 292.204,241.893 298.5,245.5C 298.205,247.735 298.539,249.735 299.5,251.5C 299.5,252.167 299.167,252.5 298.5,252.5C 296.588,251.201 294.588,250.201 292.5,249.5C 281.341,248.669 270.007,248.169 258.5,248C 263.699,247.364 268.699,246.864 273.5,246.5C 275.524,244.31 277.357,241.977 279,239.5C 279.711,237.633 279.211,236.133 277.5,235C 278.094,234.536 278.761,234.369 279.5,234.5 Z"/></g>
<g><path style="opacity:1" fill="#cdb7a5" d="M 305.5,230.5 C 304.209,231.473 304.209,232.473 305.5,233.5C 308.616,235.316 311.95,235.316 315.5,233.5C 317.033,235.289 318.033,237.289 318.5,239.5C 319.5,239.5 320.5,239.5 321.5,239.5C 323.168,250.21 324.834,260.876 326.5,271.5C 327.089,275.971 326.423,279.971 324.5,283.5C 324.223,280.11 323.223,276.943 321.5,274C 322.167,273.333 322.833,272.667 323.5,272C 322.707,268.589 322.207,265.089 322,261.5C 321.667,261.167 321.333,260.833 321,260.5C 320,261.5 319,262.5 318,263.5C 317.692,262.692 317.192,262.025 316.5,261.5C 314.234,265.05 311.234,266.383 307.5,265.5C 307.737,264.209 307.404,263.209 306.5,262.5C 306.5,261.5 306.5,260.5 306.5,259.5C 308.606,251.752 305.939,246.752 298.5,244.5C 297.164,237.838 299.497,233.171 305.5,230.5 Z"/></g>
<g><path style="opacity:1" fill="#6e4934" d="M 198.5,234.5 C 202.564,240.863 207.897,245.863 214.5,249.5C 208.741,249.214 203.075,249.548 197.5,250.5C 193.466,245.12 189.799,239.454 186.5,233.5C 188.124,233.36 189.29,234.027 190,235.5C 191.016,234.366 191.683,234.699 192,236.5C 193.667,235.5 195,234.167 196,232.5C 196.417,233.756 197.25,234.423 198.5,234.5 Z"/></g>
<g><path style="opacity:1" fill="#a88b79" d="M 179.5,244.5 C 179.662,246.527 179.495,248.527 179,250.5C 175.928,252.735 173.428,255.402 171.5,258.5C 170.586,251.649 173.253,246.982 179.5,244.5 Z"/></g>
<g><path style="opacity:1" fill="#e5dcd2" d="M 228.5,249.5 C 238.167,249.5 247.833,249.5 257.5,249.5C 269.167,249.5 280.833,249.5 292.5,249.5C 294.588,250.201 296.588,251.201 298.5,252.5C 299.694,253.272 300.694,254.272 301.5,255.5C 301.631,256.239 301.464,256.906 301,257.5C 298.044,254.773 294.544,253.273 290.5,253C 267.836,252.5 245.169,252.333 222.5,252.5C 220.821,252.715 219.821,252.048 219.5,250.5C 222.287,249.523 225.287,249.19 228.5,249.5 Z"/></g>
<g><path style="opacity:1" fill="#e0d8d5" d="M 366.5,244.5 C 367.043,244.56 367.376,244.893 367.5,245.5C 362.504,250.814 359.837,257.147 359.5,264.5C 359.5,268.167 359.5,271.833 359.5,275.5C 358.833,271.167 358.167,266.833 357.5,262.5C 355.666,254.168 358.666,248.168 366.5,244.5 Z"/></g>
<g><path style="opacity:1" fill="#a78d7c" d="M 298.5,244.5 C 305.939,246.752 308.606,251.752 306.5,259.5C 304.912,256.242 302.579,253.575 299.5,251.5C 298.539,249.735 298.205,247.735 298.5,245.5C 298.5,245.167 298.5,244.833 298.5,244.5 Z"/></g>
<g><path style="opacity:1" fill="#7c7069" d="M 152.5,239.5 C 152.5,252.833 152.5,266.167 152.5,279.5C 145.978,279.823 139.645,279.49 133.5,278.5C 139.5,278.5 145.5,278.5 151.5,278.5C 151.171,265.323 151.505,252.323 152.5,239.5 Z"/></g>
<g><path style="opacity:1" fill="#c8b19e" d="M 178.5,234.5 C 180.265,237.123 180.932,240.123 180.5,243.5C 179.833,243.5 179.5,243.833 179.5,244.5C 173.253,246.982 170.586,251.649 171.5,258.5C 171.167,260.5 170.833,262.5 170.5,264.5C 169.616,267.023 168.782,269.69 168,272.5C 167.612,270.285 166.612,268.952 165,268.5C 163.838,270.838 162.004,272.172 159.5,272.5C 159.719,271.325 159.386,270.325 158.5,269.5C 157.583,270.127 156.583,270.461 155.5,270.5C 155.028,262.627 156.028,254.96 158.5,247.5C 159.167,248.167 159.833,248.833 160.5,249.5C 162.849,245.472 165.683,241.806 169,238.5C 172.136,238.455 175.136,238.788 178,239.5C 178.494,237.866 178.66,236.199 178.5,234.5 Z"/></g>
<g><path style="opacity:1" fill="#ccb7a8" d="M 222.5,252.5 C 245.169,252.333 267.836,252.5 290.5,253C 294.544,253.273 298.044,254.773 301,257.5C 301.464,256.906 301.631,256.239 301.5,255.5C 302.906,255.973 303.573,256.973 303.5,258.5C 301.106,261.507 298.773,261.674 296.5,259C 292.453,257.539 288.287,256.706 284,256.5C 278.265,257.543 272.598,257.543 267,256.5C 266.167,257.5 265.333,258.5 264.5,259.5C 262.266,257.318 259.766,256.985 257,258.5C 254.804,257.91 252.638,257.243 250.5,256.5C 244.866,256.476 239.2,256.809 233.5,257.5C 231.945,257.278 230.611,256.611 229.5,255.5C 227.146,255.542 224.812,255.542 222.5,255.5C 222.5,254.5 222.5,253.5 222.5,252.5 Z"/></g>
<g><path style="opacity:1" fill="#8f6c57" d="M 214.5,249.5 C 215.167,249.5 215.833,249.5 216.5,249.5C 216.5,250.5 216.5,251.5 216.5,252.5C 215.868,260.573 216.535,268.24 218.5,275.5C 218.5,281.833 218.5,288.167 218.5,294.5C 217.833,294.5 217.167,294.5 216.5,294.5C 215.21,295.058 214.377,296.058 214,297.5C 213.724,291.149 212.89,285.149 211.5,279.5C 210.325,280.855 209.325,280.688 208.5,279C 206.833,278.333 205.167,278.333 203.5,279C 205.044,279.29 206.377,279.956 207.5,281C 206.692,283.088 205.692,285.088 204.5,287C 203.207,287.49 201.873,287.657 200.5,287.5C 201.398,275.58 200.564,275.58 198,287.5C 196.708,288.791 195.542,288.791 194.5,287.5C 196.19,275.467 197.19,263.134 197.5,250.5C 203.075,249.548 208.741,249.214 214.5,249.5 Z"/></g>
<g><path style="opacity:1" fill="#c1b1a7" d="M 366.5,244.5 C 367.189,243.226 368.023,243.226 369,244.5C 371.288,253.569 368.455,260.236 360.5,264.5C 360.167,264.5 359.833,264.5 359.5,264.5C 359.837,257.147 362.504,250.814 367.5,245.5C 367.376,244.893 367.043,244.56 366.5,244.5 Z"/></g>
<g><path style="opacity:1" fill="#7e756f" d="M 126.5,252.5 C 127.913,255.219 128.58,258.219 128.5,261.5C 127.087,258.781 126.42,255.781 126.5,252.5 Z"/></g>
<g><path style="opacity:1" fill="#c6ad9c" d="M 222.5,255.5 C 224.812,255.542 227.146,255.542 229.5,255.5C 230.611,256.611 231.945,257.278 233.5,257.5C 239.2,256.809 244.866,256.476 250.5,256.5C 252.638,257.243 254.804,257.91 257,258.5C 259.766,256.985 262.266,257.318 264.5,259.5C 265.333,258.5 266.167,257.5 267,256.5C 272.598,257.543 278.265,257.543 284,256.5C 288.287,256.706 292.453,257.539 296.5,259C 298.773,261.674 301.106,261.507 303.5,258.5C 304.404,259.209 304.737,260.209 304.5,261.5C 304.5,263.167 304.5,264.833 304.5,266.5C 302.952,266.179 302.285,265.179 302.5,263.5C 299.156,263.819 295.989,263.486 293,262.5C 291.715,262.95 290.548,263.617 289.5,264.5C 287.508,263.979 285.341,263.979 283,264.5C 281.5,264.333 280,264.167 278.5,264C 279.706,262.982 279.373,262.482 277.5,262.5C 268.938,266.396 260.438,266.396 252,262.5C 249.684,262.934 247.684,263.934 246,265.5C 239.315,264.378 232.149,262.712 224.5,260.5C 223.438,258.978 222.771,257.312 222.5,255.5 Z"/></g>
<g><path style="opacity:1" fill="#bfb2a9" d="M 338.5,232.5 C 339.167,231.167 339.833,229.833 340.5,228.5C 340.447,236.865 340.947,245.198 342,253.5C 344.563,245.935 349.063,239.768 355.5,235C 356.635,234.251 357.635,234.417 358.5,235.5C 354.843,239.327 351.343,243.327 348,247.5C 345.965,250.561 344.799,253.895 344.5,257.5C 343.71,258.609 343.21,259.942 343,261.5C 342.176,270.343 342.343,279.01 343.5,287.5C 348.167,287.5 352.833,287.5 357.5,287.5C 357.665,284.482 357.498,281.482 357,278.5C 354.485,274.656 351.985,270.823 349.5,267C 349.85,265.743 350.517,265.409 351.5,266C 353.333,268.5 355.167,271 357,273.5C 357.499,269.848 357.665,266.182 357.5,262.5C 358.167,266.833 358.833,271.167 359.5,275.5C 359.5,279.833 359.5,284.167 359.5,288.5C 352.167,288.5 344.833,288.5 337.5,288.5C 338.209,287.596 339.209,287.263 340.5,287.5C 340.666,279.493 340.5,271.493 340,263.5C 341.268,243.976 335.768,226.81 323.5,212C 323.85,210.743 324.517,210.409 325.5,211C 331.505,217.18 335.838,224.346 338.5,232.5 Z"/></g>
<g><path style="opacity:1" fill="#bc9f8a" d="M 218.5,250.5 C 218.833,250.5 219.167,250.5 219.5,250.5C 219.821,252.048 220.821,252.715 222.5,252.5C 222.5,253.5 222.5,254.5 222.5,255.5C 222.771,257.312 223.438,258.978 224.5,260.5C 232.149,262.712 239.315,264.378 246,265.5C 247.684,263.934 249.684,262.934 252,262.5C 260.438,266.396 268.938,266.396 277.5,262.5C 279.373,262.482 279.706,262.982 278.5,264C 280,264.167 281.5,264.333 283,264.5C 285.341,263.979 287.508,263.979 289.5,264.5C 290.548,263.617 291.715,262.95 293,262.5C 295.989,263.486 299.156,263.819 302.5,263.5C 302.285,265.179 302.952,266.179 304.5,266.5C 304.5,268.5 304.5,270.5 304.5,272.5C 275.833,272.5 247.167,272.5 218.5,272.5C 218.5,265.167 218.5,257.833 218.5,250.5 Z"/></g>
<g><path style="opacity:1" fill="#827b75" d="M 371.5,264.5 C 371.829,267.228 371.163,269.562 369.5,271.5C 369.41,268.848 370.076,266.515 371.5,264.5 Z"/></g>
<g><path style="opacity:1" fill="#937666" d="M 304.5,261.5 C 305.483,265.298 305.817,269.298 305.5,273.5C 276.5,273.5 247.5,273.5 218.5,273.5C 218.5,273.167 218.5,272.833 218.5,272.5C 247.167,272.5 275.833,272.5 304.5,272.5C 304.5,270.5 304.5,268.5 304.5,266.5C 304.5,264.833 304.5,263.167 304.5,261.5 Z"/></g>
<g><path style="opacity:1" fill="#3a1f11" d="M 299.5,251.5 C 302.579,253.575 304.912,256.242 306.5,259.5C 306.5,260.5 306.5,261.5 306.5,262.5C 306.5,273.167 306.5,283.833 306.5,294.5C 306.167,294.5 305.833,294.5 305.5,294.5C 305.5,288.167 305.5,281.833 305.5,275.5C 275.931,274.841 246.931,274.174 218.5,273.5C 247.5,273.5 276.5,273.5 305.5,273.5C 305.817,269.298 305.483,265.298 304.5,261.5C 304.737,260.209 304.404,259.209 303.5,258.5C 303.573,256.973 302.906,255.973 301.5,255.5C 300.694,254.272 299.694,253.272 298.5,252.5C 299.167,252.5 299.5,252.167 299.5,251.5 Z"/></g>
<g><path style="opacity:1" fill="#c1a590" d="M 324.5,283.5 C 324.131,285.441 323.464,287.275 322.5,289C 320.224,288.426 317.891,288.592 315.5,289.5C 315.67,290.822 315.337,291.989 314.5,293C 312.527,293.495 310.527,293.662 308.5,293.5C 308.768,291.901 308.434,290.568 307.5,289.5C 307.5,281.5 307.5,273.5 307.5,265.5C 311.234,266.383 314.234,265.05 316.5,261.5C 317.192,262.025 317.692,262.692 318,263.5C 319,262.5 320,261.5 321,260.5C 321.333,260.833 321.667,261.167 322,261.5C 322.207,265.089 322.707,268.589 323.5,272C 322.833,272.667 322.167,273.333 321.5,274C 323.223,276.943 324.223,280.11 324.5,283.5 Z"/></g>
<g><path style="opacity:1" fill="#543a29" d="M 218.5,250.5 C 218.5,257.833 218.5,265.167 218.5,272.5C 218.5,272.833 218.5,273.167 218.5,273.5C 246.931,274.174 275.931,274.841 305.5,275.5C 305.167,275.5 304.833,275.5 304.5,275.5C 276.833,275.5 249.167,275.5 221.5,275.5C 220.5,275.5 219.5,275.5 218.5,275.5C 216.535,268.24 215.868,260.573 216.5,252.5C 217.167,251.833 217.833,251.167 218.5,250.5 Z"/></g>
<g><path style="opacity:1" fill="#695d54" d="M 359.5,264.5 C 359.833,264.5 360.167,264.5 360.5,264.5C 360.5,272.167 360.5,279.833 360.5,287.5C 361.5,287.5 362.5,287.5 363.5,287.5C 362.432,288.434 361.099,288.768 359.5,288.5C 359.5,284.167 359.5,279.833 359.5,275.5C 359.5,271.833 359.5,268.167 359.5,264.5 Z"/></g>
<g><path style="opacity:1" fill="#7f6e62" d="M 344.5,257.5 C 343.634,267.473 343.301,277.473 343.5,287.5C 342.343,279.01 342.176,270.343 343,261.5C 343.21,259.942 343.71,258.609 344.5,257.5 Z"/></g>
<g><path style="opacity:1" fill="#ad8f7c" d="M 170.5,264.5 C 170.5,274.5 170.5,284.5 170.5,294.5C 166.167,294.5 161.833,294.5 157.5,294.5C 157.317,290.749 157.317,286.749 157.5,282.5C 148.087,283.737 138.421,283.737 128.5,282.5C 128.5,285.5 128.5,288.5 128.5,291.5C 127.359,288.36 127.192,285.027 128,281.5C 131.094,281.207 132.594,279.541 132.5,276.5C 133.338,276.842 133.672,277.508 133.5,278.5C 139.645,279.49 145.978,279.823 152.5,279.5C 153.117,279.389 153.617,279.056 154,278.5C 154.497,275.854 154.664,273.187 154.5,270.5C 154.833,270.5 155.167,270.5 155.5,270.5C 156.583,270.461 157.583,270.127 158.5,269.5C 159.386,270.325 159.719,271.325 159.5,272.5C 162.004,272.172 163.838,270.838 165,268.5C 166.612,268.952 167.612,270.285 168,272.5C 168.782,269.69 169.616,267.023 170.5,264.5 Z"/></g>
<g><path style="opacity:1" fill="#472717" d="M 182.5,221.5 C 184.036,225.442 185.37,229.442 186.5,233.5C 189.799,239.454 193.466,245.12 197.5,250.5C 197.19,263.134 196.19,275.467 194.5,287.5C 194.246,274.803 194.579,262.137 195.5,249.5C 187.454,248.291 180.787,250.624 175.5,256.5C 174.442,257.6 173.608,258.934 173,260.5C 172.5,269.494 172.334,278.494 172.5,287.5C 172.818,292.032 172.485,296.366 171.5,300.5C 171.795,298.265 171.461,296.265 170.5,294.5C 170.5,284.5 170.5,274.5 170.5,264.5C 170.833,262.5 171.167,260.5 171.5,258.5C 173.428,255.402 175.928,252.735 179,250.5C 179.495,248.527 179.662,246.527 179.5,244.5C 179.5,243.833 179.833,243.5 180.5,243.5C 181.268,242.737 181.768,241.737 182,240.5C 183.353,241.685 184.52,243.019 185.5,244.5C 186.833,244.167 188.167,243.833 189.5,243.5C 187,237.833 184.5,232.167 182,226.5C 181.22,224.613 181.387,222.946 182.5,221.5 Z"/></g>
<g><path style="opacity:1" fill="#866451" d="M 194.5,287.5 C 195.542,288.791 196.708,288.791 198,287.5C 200.564,275.58 201.398,275.58 200.5,287.5C 201.873,287.657 203.207,287.49 204.5,287C 205.692,285.088 206.692,283.088 207.5,281C 206.377,279.956 205.044,279.29 203.5,279C 205.167,278.333 206.833,278.333 208.5,279C 209.325,280.688 210.325,280.855 211.5,279.5C 212.89,285.149 213.724,291.149 214,297.5C 214.377,296.058 215.21,295.058 216.5,294.5C 216.819,299.363 216.486,304.03 215.5,308.5C 212.434,300.118 210.434,291.452 209.5,282.5C 208.436,294.965 211.436,306.298 218.5,316.5C 218.733,318.062 219.4,319.395 220.5,320.5C 225.517,326.004 231.85,328.837 239.5,329C 241.167,330.167 242.833,331.333 244.5,332.5C 229.339,333.167 214.339,333.833 199.5,334.5C 192.492,334.666 185.492,334.5 178.5,334C 173.449,331.714 170.449,327.881 169.5,322.5C 170.616,315.354 171.283,308.02 171.5,300.5C 172.485,296.366 172.818,292.032 172.5,287.5C 173.325,283.353 173.825,279.019 174,274.5C 174.335,279.519 174.835,284.519 175.5,289.5C 174.373,292.191 174.373,294.858 175.5,297.5C 173.922,301.968 172.922,306.634 172.5,311.5C 174.305,314.23 174.638,317.063 173.5,320C 174.711,323.052 175.545,326.219 176,329.5C 177.491,331.004 179.324,331.837 181.5,332C 189.677,332.823 197.677,332.656 205.5,331.5C 206.925,333.031 207.591,332.698 207.5,330.5C 212.756,331.784 218.256,332.451 224,332.5C 229.167,332.167 234.333,331.833 239.5,331.5C 239.291,330.914 238.957,330.414 238.5,330C 234.167,329.667 229.833,329.333 225.5,329C 223.268,327.41 220.934,325.91 218.5,324.5C 215.496,319.798 212.496,315.132 209.5,310.5C 210.859,308.694 210.525,307.194 208.5,306C 209.167,305.667 209.833,305.333 210.5,305C 209.944,302.763 208.944,300.763 207.5,299C 208.061,297.434 207.394,296.101 205.5,295C 205.833,294.667 206.167,294.333 206.5,294C 204.519,292.369 202.519,292.535 200.5,294.5C 199.833,294.167 199.167,293.833 198.5,293.5C 196.679,294.728 195.679,296.394 195.5,298.5C 194.5,298.5 193.5,298.5 192.5,298.5C 192.603,295.781 192.269,293.115 191.5,290.5C 191.556,289.263 192.056,288.263 193,287.5C 193.5,276.172 193.667,264.838 193.5,253.5C 190.911,252.562 188.411,252.229 186,252.5C 183.176,255.498 179.676,256.832 175.5,256.5C 180.787,250.624 187.454,248.291 195.5,249.5C 194.579,262.137 194.246,274.803 194.5,287.5 Z"/></g>
<g><path style="opacity:1" fill="#b29580" d="M 218.5,275.5 C 219.5,275.5 220.5,275.5 221.5,275.5C 223.534,277.753 224.534,280.42 224.5,283.5C 230.718,284.494 237.051,286.16 243.5,288.5C 246.587,287.318 249.42,287.318 252,288.5C 253.881,286.175 255.548,286.175 257,288.5C 257.945,288.095 258.612,287.428 259,286.5C 259.317,288.301 259.984,288.634 261,287.5C 265.59,288.361 270.257,289.028 275,289.5C 277.034,289.646 278.701,288.98 280,287.5C 282.654,287.525 285.321,287.525 288,287.5C 289.784,288.309 291.617,288.976 293.5,289.5C 296.256,287.729 299.256,286.729 302.5,286.5C 303.953,283.014 304.619,279.347 304.5,275.5C 304.833,275.5 305.167,275.5 305.5,275.5C 305.5,281.833 305.5,288.167 305.5,294.5C 276.5,294.5 247.5,294.5 218.5,294.5C 218.5,288.167 218.5,281.833 218.5,275.5 Z"/></g>
<g><path style="opacity:1" fill="#c0a691" d="M 221.5,275.5 C 249.167,275.5 276.833,275.5 304.5,275.5C 304.619,279.347 303.953,283.014 302.5,286.5C 299.256,286.729 296.256,287.729 293.5,289.5C 291.617,288.976 289.784,288.309 288,287.5C 285.321,287.525 282.654,287.525 280,287.5C 278.701,288.98 277.034,289.646 275,289.5C 270.257,289.028 265.59,288.361 261,287.5C 259.984,288.634 259.317,288.301 259,286.5C 258.612,287.428 257.945,288.095 257,288.5C 255.548,286.175 253.881,286.175 252,288.5C 249.42,287.318 246.587,287.318 243.5,288.5C 237.051,286.16 230.718,284.494 224.5,283.5C 224.534,280.42 223.534,277.753 221.5,275.5 Z"/></g>
<g><path style="opacity:1" fill="#845f49" d="M 157.5,282.5 C 151.611,282.763 148.277,285.763 147.5,291.5C 143.196,292.638 138.862,293.971 134.5,295.5C 136.833,296.167 139.167,296.833 141.5,297.5C 135.423,302.25 129.09,306.583 122.5,310.5C 122.335,307.482 122.502,304.482 123,301.5C 124.817,298.684 126.983,296.184 129.5,294C 129.257,293.098 128.923,292.265 128.5,291.5C 128.5,288.5 128.5,285.5 128.5,282.5C 138.421,283.737 148.087,283.737 157.5,282.5 Z"/></g>
<g><path style="opacity:1" fill="#9e8778" d="M 326.5,240.5 C 327.661,255.328 327.828,270.328 327,285.5C 325.736,290.429 322.736,293.763 318,295.5C 317.5,303.159 317.334,310.826 317.5,318.5C 316.778,318.918 316.278,319.584 316,320.5C 315.601,320.272 315.435,319.938 315.5,319.5C 315.5,311.167 315.5,302.833 315.5,294.5C 312.833,294.5 310.167,294.5 307.5,294.5C 307.5,292.833 307.5,291.167 307.5,289.5C 308.434,290.568 308.768,291.901 308.5,293.5C 310.527,293.662 312.527,293.495 314.5,293C 315.337,291.989 315.67,290.822 315.5,289.5C 317.891,288.592 320.224,288.426 322.5,289C 323.464,287.275 324.131,285.441 324.5,283.5C 326.423,279.971 327.089,275.971 326.5,271.5C 326.5,261.167 326.5,250.833 326.5,240.5 Z"/></g>
<g><path style="opacity:1" fill="#4d3729" d="M 216.5,294.5 C 217.167,294.5 217.833,294.5 218.5,294.5C 247.5,294.5 276.5,294.5 305.5,294.5C 276.338,295.498 247.005,295.831 217.5,295.5C 217.5,300.833 217.5,306.167 217.5,311.5C 216.599,310.71 215.932,309.71 215.5,308.5C 216.486,304.03 216.819,299.363 216.5,294.5 Z"/></g>
<g><path style="opacity:1" fill="#c4ab97" d="M 337.5,289.5 C 348.993,290.331 360.659,290.831 372.5,291C 375.18,299.588 376.513,308.422 376.5,317.5C 374.396,317.799 372.396,317.466 370.5,316.5C 367.291,312.127 363.291,308.627 358.5,306C 350.895,304.81 343.229,304.143 335.5,304C 334.663,302.989 334.33,301.822 334.5,300.5C 334.517,296.466 335.517,292.799 337.5,289.5 Z"/></g>
<g><path style="opacity:1" fill="#1d1005" d="M 305.5,294.5 C 305.833,294.5 306.167,294.5 306.5,294.5C 308.948,295.473 311.615,295.806 314.5,295.5C 314.5,303.5 314.5,311.5 314.5,319.5C 313.081,320.451 311.415,320.784 309.5,320.5C 306.868,312.909 304.535,305.242 302.5,297.5C 300.167,297.5 297.833,297.5 295.5,297.5C 297.607,304.381 300.273,311.048 303.5,317.5C 276.143,319.186 248.476,320.186 220.5,320.5C 219.4,319.395 218.733,318.062 218.5,316.5C 218.784,314.585 218.451,312.919 217.5,311.5C 217.5,306.167 217.5,300.833 217.5,295.5C 247.005,295.831 276.338,295.498 305.5,294.5 Z"/></g>
<g><path style="opacity:1" fill="#8d6752" d="M 207.5,330.5 C 203.638,329.476 200.805,327.143 199,323.5C 195.182,316.214 192.682,308.547 191.5,300.5C 190.817,309.965 193.317,318.632 199,326.5C 200.758,328.765 202.925,330.432 205.5,331.5C 197.677,332.656 189.677,332.823 181.5,332C 179.324,331.837 177.491,331.004 176,329.5C 175.545,326.219 174.711,323.052 173.5,320C 174.638,317.063 174.305,314.23 172.5,311.5C 172.922,306.634 173.922,301.968 175.5,297.5C 174.373,294.858 174.373,292.191 175.5,289.5C 174.835,284.519 174.335,279.519 174,274.5C 173.825,279.019 173.325,283.353 172.5,287.5C 172.334,278.494 172.5,269.494 173,260.5C 173.608,258.934 174.442,257.6 175.5,256.5C 179.676,256.832 183.176,255.498 186,252.5C 188.411,252.229 190.911,252.562 193.5,253.5C 193.667,264.838 193.5,276.172 193,287.5C 192.056,288.263 191.556,289.263 191.5,290.5C 192.269,293.115 192.603,295.781 192.5,298.5C 193.5,298.5 194.5,298.5 195.5,298.5C 195.679,296.394 196.679,294.728 198.5,293.5C 199.167,293.833 199.833,294.167 200.5,294.5C 202.519,292.535 204.519,292.369 206.5,294C 206.167,294.333 205.833,294.667 205.5,295C 207.394,296.101 208.061,297.434 207.5,299C 208.944,300.763 209.944,302.763 210.5,305C 209.833,305.333 209.167,305.667 208.5,306C 210.525,307.194 210.859,308.694 209.5,310.5C 212.496,315.132 215.496,319.798 218.5,324.5C 220.934,325.91 223.268,327.41 225.5,329C 229.833,329.333 234.167,329.667 238.5,330C 238.957,330.414 239.291,330.914 239.5,331.5C 234.333,331.833 229.167,332.167 224,332.5C 218.256,332.451 212.756,331.784 207.5,330.5 Z"/></g>
<g><path style="opacity:1" fill="#4b2919" d="M 180.5,277.5 C 182.312,286.781 183.145,296.448 183,306.5C 184.305,312.401 185.971,318.067 188,323.5C 184.312,318.438 181.978,312.772 181,306.5C 180.5,296.839 180.334,287.172 180.5,277.5 Z"/></g>
<g><path style="opacity:1" fill="#69412c" d="M 157.5,282.5 C 157.317,286.749 157.317,290.749 157.5,294.5C 158.306,297.285 158.972,300.119 159.5,303C 159.167,304.167 158.833,305.333 158.5,306.5C 148.342,309.912 138.676,314.412 129.5,320C 126.964,320.186 124.631,320.686 122.5,321.5C 121.167,317.833 121.167,314.167 122.5,310.5C 129.09,306.583 135.423,302.25 141.5,297.5C 139.167,296.833 136.833,296.167 134.5,295.5C 138.862,293.971 143.196,292.638 147.5,291.5C 148.277,285.763 151.611,282.763 157.5,282.5 Z"/></g>
<g><path style="opacity:1" fill="#543d30" d="M 306.5,262.5 C 307.404,263.209 307.737,264.209 307.5,265.5C 307.5,273.5 307.5,281.5 307.5,289.5C 307.5,291.167 307.5,292.833 307.5,294.5C 310.167,294.5 312.833,294.5 315.5,294.5C 315.5,302.833 315.5,311.167 315.5,319.5C 315.167,319.5 314.833,319.5 314.5,319.5C 314.5,311.5 314.5,303.5 314.5,295.5C 311.615,295.806 308.948,295.473 306.5,294.5C 306.5,283.833 306.5,273.167 306.5,262.5 Z"/></g>
<g><path style="opacity:1" fill="#391c10" d="M 215.5,308.5 C 215.932,309.71 216.599,310.71 217.5,311.5C 218.451,312.919 218.784,314.585 218.5,316.5C 211.436,306.298 208.436,294.965 209.5,282.5C 210.434,291.452 212.434,300.118 215.5,308.5 Z"/></g>
<g><path style="opacity:1" fill="#492615" d="M 207.5,330.5 C 207.591,332.698 206.925,333.031 205.5,331.5C 202.925,330.432 200.758,328.765 199,326.5C 193.317,318.632 190.817,309.965 191.5,300.5C 192.682,308.547 195.182,316.214 199,323.5C 200.805,327.143 203.638,329.476 207.5,330.5 Z"/></g>
<g><path style="opacity:1" fill="#2f1b10" d="M 157.5,294.5 C 161.833,294.5 166.167,294.5 170.5,294.5C 171.461,296.265 171.795,298.265 171.5,300.5C 171.283,308.02 170.616,315.354 169.5,322.5C 169.441,320.278 168.275,319.278 166,319.5C 163.249,319.946 161.582,321.613 161,324.5C 160.097,325.701 158.931,326.535 157.5,327C 147.167,327.667 136.833,327.667 126.5,327C 123.785,326.125 122.452,324.292 122.5,321.5C 124.631,320.686 126.964,320.186 129.5,320C 138.676,314.412 148.342,309.912 158.5,306.5C 158.833,305.333 159.167,304.167 159.5,303C 158.972,300.119 158.306,297.285 157.5,294.5 Z"/></g>
<g><path style="opacity:1" fill="#7d5844" d="M 334.5,300.5 C 334.33,301.822 334.663,302.989 335.5,304C 343.229,304.143 350.895,304.81 358.5,306C 363.291,308.627 367.291,312.127 370.5,316.5C 372.396,317.466 374.396,317.799 376.5,317.5C 376.806,320.385 376.473,323.052 375.5,325.5C 367.795,325.103 360.461,322.937 353.5,319C 347.5,318.667 341.5,318.333 335.5,318C 334.584,317.626 333.75,317.126 333,316.5C 332.503,314.19 332.337,311.857 332.5,309.5C 332.42,306.219 333.087,303.219 334.5,300.5 Z"/></g>
<g><path style="opacity:1" fill="#3a2317" d="M 332.5,309.5 C 332.337,311.857 332.503,314.19 333,316.5C 333.75,317.126 334.584,317.626 335.5,318C 341.5,318.333 347.5,318.667 353.5,319C 360.461,322.937 367.795,325.103 375.5,325.5C 375.262,328.148 373.928,329.982 371.5,331C 360.5,331.667 349.5,331.667 338.5,331C 334.386,328.797 332.22,325.297 332,320.5C 330.644,319.62 329.144,319.286 327.5,319.5C 328.848,318.814 330.015,317.814 331,316.5C 331.186,313.964 331.686,311.631 332.5,309.5 Z"/></g>
<g><path style="opacity:1" fill="#8d6e5b" d="M 314.5,319.5 C 314.833,319.5 315.167,319.5 315.5,319.5C 315.435,319.938 315.601,320.272 316,320.5C 316.278,319.584 316.778,318.918 317.5,318.5C 319.279,320.344 321.612,321.01 324.5,320.5C 317.085,327.545 308.418,332.545 298.5,335.5C 298.577,334.25 299.244,333.417 300.5,333C 299.833,331.667 298.833,330.667 297.5,330C 299.411,328.504 301.411,327.171 303.5,326C 298.15,325.961 292.983,325.128 288,323.5C 287.689,325.556 287.189,327.556 286.5,329.5C 287.689,330.429 289.022,330.762 290.5,330.5C 290.657,331.873 290.49,333.207 290,334.5C 288.045,333.547 286.378,332.213 285,330.5C 282.729,332.434 280.729,332.434 279,330.5C 276.046,334.306 272.546,335.806 268.5,335C 269.696,334.346 269.696,333.846 268.5,333.5C 267.808,334.025 267.308,334.692 267,335.5C 266.505,333.527 266.338,331.527 266.5,329.5C 268.674,329.08 270.674,329.08 272.5,329.5C 274.612,327.794 276.945,326.461 279.5,325.5C 277.406,323.396 274.906,322.063 272,321.5C 263.322,324.227 254.489,324.893 245.5,323.5C 244.5,324 243.5,324.5 242.5,325C 246.916,327.251 251.583,328.917 256.5,330C 255.315,331.353 253.981,332.52 252.5,333.5C 252.709,334.086 253.043,334.586 253.5,335C 257.3,335.083 261.3,335.416 265.5,336C 264.584,336.374 263.75,336.874 263,337.5C 251.764,337.361 239.931,337.361 227.5,337.5C 227.5,338.5 227.5,339.5 227.5,340.5C 243.462,342.971 259.462,343.138 275.5,341C 282.943,339.276 290.277,337.443 297.5,335.5C 289.487,339.946 280.82,342.613 271.5,343.5C 259.852,344.302 248.185,344.635 236.5,344.5C 224.706,343.805 213.706,340.805 203.5,335.5C 218.515,335.833 233.515,335.499 248.5,334.5C 243.473,327.993 236.806,324.826 228.5,325C 226.695,324.028 225.028,322.861 223.5,321.5C 250.492,320.5 277.492,320.167 304.5,320.5C 304.737,319.209 304.404,318.209 303.5,317.5C 300.273,311.048 297.607,304.381 295.5,297.5C 297.833,297.5 300.167,297.5 302.5,297.5C 304.535,305.242 306.868,312.909 309.5,320.5C 311.415,320.784 313.081,320.451 314.5,319.5 Z"/></g>
<g><path style="opacity:1" fill="#44281b" d="M 303.5,317.5 C 304.404,318.209 304.737,319.209 304.5,320.5C 277.492,320.167 250.492,320.5 223.5,321.5C 225.028,322.861 226.695,324.028 228.5,325C 236.806,324.826 243.473,327.993 248.5,334.5C 233.515,335.499 218.515,335.833 203.5,335.5C 202.432,334.566 201.099,334.232 199.5,334.5C 214.339,333.833 229.339,333.167 244.5,332.5C 242.833,331.333 241.167,330.167 239.5,329C 231.85,328.837 225.517,326.004 220.5,320.5C 248.476,320.186 276.143,319.186 303.5,317.5 Z"/></g>
<g><path style="opacity:1" fill="#916f57" d="M 298.5,335.5 C 298.167,335.5 297.833,335.5 297.5,335.5C 290.277,337.443 282.943,339.276 275.5,341C 259.462,343.138 243.462,342.971 227.5,340.5C 227.5,339.5 227.5,338.5 227.5,337.5C 239.931,337.361 251.764,337.361 263,337.5C 263.75,336.874 264.584,336.374 265.5,336C 261.3,335.416 257.3,335.083 253.5,335C 253.043,334.586 252.709,334.086 252.5,333.5C 253.981,332.52 255.315,331.353 256.5,330C 251.583,328.917 246.916,327.251 242.5,325C 243.5,324.5 244.5,324 245.5,323.5C 254.489,324.893 263.322,324.227 272,321.5C 274.906,322.063 277.406,323.396 279.5,325.5C 276.945,326.461 274.612,327.794 272.5,329.5C 270.674,329.08 268.674,329.08 266.5,329.5C 266.338,331.527 266.505,333.527 267,335.5C 267.308,334.692 267.808,334.025 268.5,333.5C 269.696,333.846 269.696,334.346 268.5,335C 272.546,335.806 276.046,334.306 279,330.5C 280.729,332.434 282.729,332.434 285,330.5C 286.378,332.213 288.045,333.547 290,334.5C 290.49,333.207 290.657,331.873 290.5,330.5C 289.022,330.762 287.689,330.429 286.5,329.5C 287.189,327.556 287.689,325.556 288,323.5C 292.983,325.128 298.15,325.961 303.5,326C 301.411,327.171 299.411,328.504 297.5,330C 298.833,330.667 299.833,331.667 300.5,333C 299.244,333.417 298.577,334.25 298.5,335.5 Z"/></g>
<g><path style="opacity:1" fill="#3c1d0f" d="M 281.5,323.5 C 284.861,324.203 285.194,325.537 282.5,327.5C 281.571,326.311 281.238,324.978 281.5,323.5 Z"/></g>
<g><path style="opacity:1" fill="#b6a699" d="M 271.5,343.5 C 264.903,345.03 258.07,345.697 251,345.5C 245.988,345.499 241.155,345.166 236.5,344.5C 248.185,344.635 259.852,344.302 271.5,343.5 Z"/></g>
</svg>
