<svg width="35" height="35" viewBox="0 0 35 35" fill="none" xmlns="http://www.w3.org/2000/svg">
<path d="M14.5833 11.6666V8.74992C14.5833 7.97637 14.8905 7.2345 15.4375 6.68752C15.9845 6.14054 16.7264 5.83325 17.4999 5.83325H27.7083C28.4818 5.83325 29.2237 6.14054 29.7706 6.68752C30.3176 7.2345 30.6249 7.97637 30.6249 8.74992V26.2499C30.6249 27.0235 30.3176 27.7653 29.7706 28.3123C29.2237 28.8593 28.4818 29.1666 27.7083 29.1666H17.4999C16.7264 29.1666 15.9845 28.8593 15.4375 28.3123C14.8905 27.7653 14.5833 27.0235 14.5833 26.2499V23.3333" stroke="#C4B7A6" stroke-width="2" stroke-linecap="round" stroke-linejoin="round"/>
<path d="M21.875 17.5H4.375L8.75 13.125" stroke="#C4B7A6" stroke-width="2" stroke-linecap="round" stroke-linejoin="round"/>
<path d="M8.75 21.875L4.375 17.5" stroke="#C4B7A6" stroke-width="2" stroke-linecap="round" stroke-linejoin="round"/>
</svg>

