<svg width="32" height="36" viewBox="0 0 32 36" fill="none" xmlns="http://www.w3.org/2000/svg">
<path d="M15.5621 1L30.7976 9.29879V25.5542L15.8973 17.438L1.1709 25.4595V8.82887L15.5621 1Z" stroke="#C4B7A6" stroke-width="1.37953"/>
<path d="M1 25.7461C14.8238 33.3097 16.0854 34.0001 16.0854 34.0001L31 25.8396" stroke="#C4B7A6" stroke-width="2.12787"/>
<path d="M15.7976 17.5029C15.7976 1.31129 15.7976 1.31128 15.7976 1.31128" stroke="#C4B7A6" stroke-width="1.0198"/>
<path d="M20.5493 9.25537C20.5493 14.7283 20.5493 14.7283 20.5493 14.7283L25.326 17.3302V11.6458L20.5493 9.25537Z" stroke="#C4B7A6" stroke-width="0.999999"/>
<path d="M23.0115 10.5637C23.0115 16.0795 23.0115 16.0795 23.0115 16.0795" stroke="#C4B7A6" stroke-width="0.999999"/>
<path d="M7.20679 23.5837V13.0413L10.9544 11V21.6709" stroke="#C4B7A6" stroke-width="1.37953" stroke-linecap="square"/>
<path d="M11.2663 16.3745L7.5918 18.376L11.2214 20.3531L14.5672 18.5306L11.2663 16.3745Z" fill="#C4B7A6" stroke="#C4B7A6" stroke-width="0.506457"/>
<path d="M10.9788 20.3809V25.5853" stroke="#C4B7A6" stroke-width="1.37953" stroke-linecap="square"/>
<path d="M14.3735 18.5125V24.0727" stroke="#C4B7A6" stroke-width="1.37953" stroke-linecap="square"/>
</svg>
