<svg width="35" height="35" viewBox="0 0 35 35" fill="none" xmlns="http://www.w3.org/2000/svg">
<g clip-path="url(#clip0_528_714)">
<path d="M15.0573 6.29563C15.6785 3.73479 19.3215 3.73479 19.9427 6.29563C20.0359 6.68033 20.2187 7.03759 20.476 7.33833C20.7334 7.63907 21.0582 7.87479 21.4239 8.0263C21.7896 8.17781 22.1859 8.24082 22.5805 8.21023C22.9752 8.17963 23.357 8.05627 23.695 7.85021C25.9452 6.47937 28.5221 9.05479 27.1513 11.3065C26.9455 11.6443 26.8223 12.0259 26.7918 12.4203C26.7613 12.8147 26.8242 13.2107 26.9756 13.5762C27.1269 13.9417 27.3623 14.2663 27.6627 14.5236C27.9631 14.781 28.32 14.9638 28.7044 15.0573C31.2652 15.6785 31.2652 19.3215 28.7044 19.9427C28.3197 20.0359 27.9624 20.2187 27.6617 20.476C27.3609 20.7334 27.1252 21.0582 26.9737 21.4239C26.8222 21.7896 26.7592 22.1859 26.7898 22.5805C26.8204 22.9752 26.9437 23.357 27.1498 23.695C28.5206 25.9452 25.9452 28.5221 23.6935 27.1513C23.3557 26.9455 22.9741 26.8223 22.5797 26.7918C22.1853 26.7613 21.7893 26.8242 21.4238 26.9756C21.0583 27.1269 20.7337 27.3623 20.4764 27.6627C20.219 27.9631 20.0362 28.32 19.9427 28.7044C19.3215 31.2652 15.6785 31.2652 15.0573 28.7044C14.9641 28.3197 14.7813 27.9624 14.524 27.6617C14.2666 27.3609 13.9418 27.1252 13.5761 26.9737C13.2104 26.8222 12.8141 26.7592 12.4195 26.7898C12.0248 26.8204 11.643 26.9437 11.305 27.1498C9.05479 28.5206 6.47792 25.9452 7.84875 23.6935C8.05452 23.3557 8.17768 22.9741 8.20821 22.5797C8.23873 22.1853 8.17577 21.7893 8.02444 21.4238C7.87311 21.0583 7.63767 20.7337 7.33727 20.4764C7.03687 20.219 6.67999 20.0362 6.29563 19.9427C3.73479 19.3215 3.73479 15.6785 6.29563 15.0573C6.68033 14.9641 7.03759 14.7813 7.33833 14.524C7.63907 14.2666 7.87479 13.9418 8.0263 13.5761C8.17781 13.2104 8.24082 12.8141 8.21023 12.4195C8.17963 12.0248 8.05627 11.643 7.85021 11.305C6.47937 9.05479 9.05479 6.47792 11.3065 7.84875C12.7648 8.73542 14.6548 7.95083 15.0573 6.29563Z" stroke="#C4B7A6" stroke-width="2" stroke-linecap="round" stroke-linejoin="round"/>
<path d="M13.125 17.5C13.125 18.6603 13.5859 19.7731 14.4064 20.5936C15.2269 21.4141 16.3397 21.875 17.5 21.875C18.6603 21.875 19.7731 21.4141 20.5936 20.5936C21.4141 19.7731 21.875 18.6603 21.875 17.5C21.875 16.3397 21.4141 15.2269 20.5936 14.4064C19.7731 13.5859 18.6603 13.125 17.5 13.125C16.3397 13.125 15.2269 13.5859 14.4064 14.4064C13.5859 15.2269 13.125 16.3397 13.125 17.5Z" stroke="#C4B7A6" stroke-width="2" stroke-linecap="round" stroke-linejoin="round"/>
</g>
<defs>
<clipPath id="clip0_528_714">
<rect width="35" height="35" fill="white"/>
</clipPath>
</defs>
</svg>
